<svg id="in-love" xmlns="http://www.w3.org/2000/svg" viewBox="0 0 117.271 117.271">
  <defs>
    <style>
      .cls-1 {
        fill: #ffca28;
      }

      .cls-2 {
        fill: #fafafa;
      }

      .cls-3 {
        fill: #f44336;
      }
    </style>
  </defs>
  <circle id="Ellipse_3" data-name="Ellipse 3" class="cls-1" cx="58.635" cy="58.635" r="58.635"/>
  <path id="Path_10" data-name="Path 10" class="cls-2" d="M154.847,289.451A3.652,3.652,0,0,0,151.93,288H74.385a3.668,3.668,0,0,0-3.525,4.661,43.961,43.961,0,0,0,84.6,0A3.669,3.669,0,0,0,154.847,289.451Z" transform="translate(-54.522 -222.035)"/>
  <g id="Group_6" data-name="Group 6" transform="translate(18.324 29.318)">
    <path id="Path_11" data-name="Path 11" class="cls-3" d="M104.92,128a12.908,12.908,0,0,0-6.6,1.84,12.908,12.908,0,0,0-6.6-1.84C85.153,128,80,132.889,80,139.141c0,6.809,8.458,12.665,16.381,17.62a3.655,3.655,0,0,0,3.855.015c8.524-5.211,16.411-10.958,16.411-17.635C116.647,132.889,111.495,128,104.92,128Z" transform="translate(-80 -128)"/>
    <path id="Path_12" data-name="Path 12" class="cls-3" d="M312.92,128a12.908,12.908,0,0,0-6.6,1.84,12.928,12.928,0,0,0-6.6-1.84C293.145,128,288,132.889,288,139.141c0,6.816,8.451,12.673,16.381,17.62a3.676,3.676,0,0,0,3.855.022c8.524-5.219,16.411-10.965,16.411-17.642C324.647,132.889,319.5,128,312.92,128Z" transform="translate(-240.359 -128)"/>
  </g>
</svg>
